<?xml version="1.0" standalone="no"?>
<!DOCTYPE svg PUBLIC "-//W3C//DTD SVG 20010904//EN"
 "http://www.w3.org/TR/2001/REC-SVG-20010904/DTD/svg10.dtd">
<svg version="1.0" xmlns="http://www.w3.org/2000/svg"
 width="320.000000pt" height="480.000000pt" viewBox="0 0 320.000000 480.000000"
 preserveAspectRatio="xMidYMid meet">
<metadata>
Created by potrace 1.12, written by Peter Selinger 2001-2015
</metadata>
<g transform="translate(0.000000,480.000000) scale(0.100000,-0.100000)"
fill="#000000" stroke="none">
<path d="M623 4738 c-89 -73 -121 -126 -130 -214 -3 -37 -14 -73 -29 -96 -13
-20 -22 -43 -19 -50 3 -7 -4 -41 -14 -75 -10 -34 -15 -63 -11 -65 9 -3 -46
-198 -60 -212 -15 -16 -23 67 -12 122 6 30 23 79 37 109 14 31 23 58 20 61 -7
8 -61 -116 -74 -173 -6 -27 -11 -77 -10 -110 1 -33 -6 -94 -16 -135 -18 -74
-20 -125 -17 -400 1 -63 8 -151 16 -195 20 -110 42 -244 56 -342 11 -73 10
-93 -10 -200 -13 -65 -28 -124 -34 -132 -7 -8 -12 -82 -14 -190 l-3 -176 42
-64 c23 -35 50 -66 59 -68 15 -4 15 -14 -1 -130 -10 -69 -21 -133 -24 -141
-26 -69 -23 -399 6 -492 6 -19 21 -80 35 -135 47 -190 65 -232 140 -320 23
-27 55 -80 71 -116 17 -36 47 -91 67 -123 20 -32 50 -86 66 -120 21 -44 50
-82 98 -127 112 -105 194 -170 252 -197 53 -24 103 -63 200 -152 44 -41 111
-80 138 -80 8 0 -13 18 -46 41 -66 43 -115 95 -109 113 2 6 37 16 78 21 43 6
72 14 69 20 -3 5 -9 8 -15 6 -9 -3 -163 -30 -176 -31 -4 0 -9 9 -12 19 -3 12
-19 24 -43 31 -83 23 -179 90 -312 215 -56 53 -82 87 -107 140 -19 39 -53 99
-76 135 -23 36 -48 83 -56 105 -7 22 -40 74 -73 115 -65 81 -83 126 -141 345
-40 153 -59 354 -46 480 5 50 12 94 17 98 4 5 13 -36 19 -90 6 -54 14 -119 17
-144 3 -26 14 -56 25 -68 29 -31 43 -26 20 7 -16 21 -23 57 -33 157 -14 136
-17 349 -6 400 35 170 50 220 90 301 29 58 41 96 44 144 5 76 14 146 23 170 5
14 12 122 15 240 8 266 15 340 32 340 9 0 10 8 5 28 -5 16 -5 51 -1 78 23 136
53 220 97 267 15 15 22 27 16 27 -6 0 -13 -6 -16 -12 -2 -7 -8 -10 -12 -6 -5
5 14 40 40 78 49 71 72 96 80 89 7 -8 -40 -103 -58 -118 -9 -7 -14 -17 -11
-22 3 -5 -8 -37 -24 -72 -56 -118 -67 -198 -30 -205 15 -3 17 2 12 27 -7 35
-1 54 74 211 42 88 68 128 115 177 63 66 98 86 53 31 -33 -41 -171 -324 -191
-391 -16 -54 -20 -107 -7 -107 4 0 22 50 40 111 36 119 63 170 153 289 53 69
109 117 121 104 19 -18 -23 -161 -52 -179 -5 -3 -10 -11 -10 -17 0 -6 6 -6 15
2 23 19 27 7 14 -46 -17 -70 -65 -161 -94 -180 -17 -11 -25 -26 -25 -44 0 -36
-23 -54 -60 -47 -16 4 -32 3 -34 -2 -3 -5 16 -11 41 -15 65 -9 153 34 209 101
82 97 164 234 164 272 0 6 5 11 10 11 19 0 10 -48 -21 -106 -53 -102 -90 -300
-59 -319 6 -3 10 -15 10 -25 0 -24 47 -80 68 -80 12 0 11 5 -7 24 -31 33 -34
95 -6 175 12 37 33 84 46 105 26 44 27 43 48 -48 21 -90 80 -146 145 -138 36
4 46 15 26 27 -18 11 -50 84 -58 128 -12 74 -5 288 11 350 9 33 13 65 10 73
-4 10 3 14 26 14 17 0 31 5 31 11 0 6 -9 9 -20 6 -11 -3 -20 -2 -20 2 0 4 -11
13 -25 19 -21 10 -25 19 -25 52 0 24 5 40 12 40 6 0 3 9 -7 20 -26 29 -31 25
-27 -21 3 -23 0 -39 -5 -36 -15 9 -7 -41 9 -60 28 -32 30 -60 8 -104 -14 -27
-25 -38 -29 -30 -4 6 -15 9 -24 6 -12 -5 -18 3 -26 32 -6 21 -17 62 -25 90 -9
32 -11 55 -5 58 13 9 1 25 -25 35 -13 4 -46 47 -77 97 l-54 88 1 90 c0 80 5
100 38 180 48 117 55 145 17 72 -46 -87 -71 -179 -73 -266 -1 -64 3 -84 25
-128 31 -60 33 -71 12 -53 -20 16 -56 76 -59 97 -2 9 -15 20 -29 24 -31 8 -31
7 20 -64 19 -26 61 -68 93 -93 62 -49 90 -97 111 -193 9 -41 8 -56 -4 -81 -16
-30 -10 -39 10 -19 9 9 10 -3 6 -47 -6 -62 -16 -84 -39 -84 -10 0 -13 11 -9
46 2 25 7 49 10 54 3 5 1 19 -4 32 -5 13 -14 42 -20 66 -16 58 -31 53 -24 -8
6 -52 -4 -65 -29 -34 -30 37 -67 74 -75 74 -4 0 -7 -20 -5 -45 4 -50 -8 -58
-28 -20 -10 19 -11 31 -2 49 9 21 8 26 -7 31 -32 10 -66 -12 -130 -82 -34 -37
-59 -59 -55 -48 15 42 54 93 93 124 80 64 27 73 -57 10 -42 -32 -56 -38 -63
-28 -12 20 30 88 73 118 37 26 51 48 23 37 -8 -3 -18 1 -22 9 -7 12 -16 11
-53 -8 -84 -42 -115 -66 -155 -119 -22 -28 -53 -66 -68 -83 -51 -54 -74 -89
-87 -130 -20 -66 -72 -154 -87 -148 -9 4 -13 -6 -13 -36 0 -32 -3 -39 -15 -35
-11 4 -15 -1 -15 -17 0 -24 -19 -63 -21 -44 -2 31 -18 -39 -18 -85 -1 -40 -4
-51 -11 -40 -18 26 -3 254 19 303 42 91 83 198 78 203 -2 3 -24 -40 -47 -96
-46 -109 -65 -135 -55 -73 16 95 112 319 142 330 7 3 13 12 13 20 0 22 106
166 160 219 25 25 86 65 138 92 52 26 86 48 77 50 -8 2 -35 -8 -59 -22 -63
-37 -119 -54 -138 -43 -11 8 -24 4 -47 -12 -40 -29 -39 -18 6 47 27 40 49 59
92 79 31 15 89 46 130 70 40 24 75 42 77 41 6 -7 7 -126 0 -136 -4 -7 0 -15 8
-18 20 -8 21 -33 1 -40 -8 -4 -15 -12 -15 -19 0 -6 -42 -39 -93 -73 -93 -60
-125 -88 -114 -98 8 -9 57 21 125 76 35 28 69 49 75 47 7 -3 22 5 35 17 20 17
24 18 32 6 15 -23 12 -4 -5 37 -9 22 -13 49 -10 65 4 17 2 28 -4 28 -7 0 -11
23 -11 57 0 51 3 59 33 84 24 21 28 28 15 29 -25 0 -22 16 14 72 32 52 59 68
109 68 23 0 29 -4 29 -22 0 -16 3 -19 11 -11 22 22 2 43 -41 43 -44 0 -50 12
-23 42 9 10 14 21 11 24 -4 3 -20 -15 -37 -40 -18 -25 -41 -51 -52 -57 -11 -6
-18 -13 -15 -16 8 -8 -53 -123 -67 -125 -34 -4 -77 -2 -77 3 0 17 44 58 84 80
25 13 46 27 46 31 0 11 -12 9 -40 -7 -14 -8 -31 -14 -37 -15 -23 0 -13 20 15
31 15 6 22 13 15 16 -7 2 -22 -1 -34 -7 -23 -13 -35 -6 -41 25 -2 11 -13 24
-25 30 -22 11 -21 12 15 33 32 18 34 22 14 22 -13 0 -35 -8 -50 -19 -15 -10
-38 -25 -52 -34 -34 -23 -150 -103 -179 -124 -24 -17 -24 -17 -13 3 28 53 94
118 143 142 l54 27 -34 3 c-29 3 -41 -3 -82 -44 -54 -53 -69 -40 -17 13 30 31
31 33 10 33 -12 0 -22 -4 -22 -8 0 -5 -35 -47 -77 -94 -78 -85 -88 -99 -119
-173 -19 -47 -29 -32 -20 29 10 62 55 127 130 186 61 48 73 60 61 60 -2 0 -39
-28 -82 -62z m335 -41 c2 -18 -2 -29 -13 -33 -9 -4 -21 -18 -26 -31 -5 -13
-22 -32 -39 -41 -16 -9 -30 -23 -30 -31 0 -11 4 -11 18 2 17 15 83 47 98 47
10 0 -72 -71 -100 -87 -12 -7 -30 -12 -40 -13 -10 0 -24 -7 -30 -15 -14 -19
-86 -48 -86 -35 0 13 108 164 160 223 49 55 83 61 88 14z m286 -899 c8 -13 8
-23 -1 -38 -8 -11 -9 -21 -3 -25 18 -11 -60 -168 -102 -202 -12 -10 -11 -2 5
45 15 45 26 118 37 240 1 11 55 -6 64 -20z m-719 -380 c9 -43 17 -822 9 -870
-13 -75 -24 -36 -23 80 1 64 -2 276 -6 470 -6 239 -5 352 2 352 6 0 14 -15 18
-32z m-39 -439 c5 -314 4 -441 -4 -455 -9 -16 -12 -8 -12 41 -1 33 -4 69 -6
80 -13 58 -2 786 12 772 2 -2 7 -199 10 -438z"/>
<path d="M1573 4784 c-3 -9 -1 -56 5 -104 11 -92 51 -187 108 -257 l27 -33
-31 0 c-40 0 -72 -43 -72 -97 0 -45 36 -195 56 -235 9 -17 10 -29 4 -33 -6 -3
-10 -14 -10 -24 0 -9 -5 -22 -11 -28 -9 -9 -29 6 -78 55 -68 69 -102 126 -121
204 -9 37 -8 48 10 83 11 21 20 47 20 57 0 9 5 20 10 23 6 3 10 11 10 17 0 26
-31 -19 -42 -59 -9 -36 -14 -44 -30 -40 -16 5 -18 1 -13 -31 9 -53 34 -121 62
-165 14 -22 22 -45 19 -52 -3 -8 6 -18 22 -24 15 -6 42 -23 59 -39 l33 -28 -9
-73 c-15 -119 4 -214 67 -331 58 -107 115 -154 207 -171 22 -4 55 -10 73 -14
26 -6 32 -4 32 9 0 9 -4 16 -9 16 -5 0 -11 14 -14 30 -4 17 -10 30 -15 30 -5
0 -7 -11 -5 -24 7 -37 -14 -41 -60 -10 -67 45 -106 85 -113 117 -3 17 -15 44
-25 61 -12 20 -19 50 -19 86 0 30 -4 71 -9 92 -8 36 10 98 30 98 4 0 18 -15
30 -32 13 -18 42 -56 66 -84 49 -58 51 -64 23 -57 -32 9 -23 -11 15 -31 65
-35 155 -184 155 -256 0 -10 7 -23 15 -30 7 -6 17 -33 20 -58 15 -114 18 -126
43 -149 22 -20 62 -32 62 -18 0 3 -15 18 -32 34 l-33 29 -2 174 c-1 95 -4 201
-7 236 -6 55 -5 62 11 62 30 0 45 -16 78 -82 27 -55 34 -63 57 -61 22 1 27 -4
38 -41 10 -37 9 -48 -5 -77 l-18 -34 22 19 c29 26 27 78 -4 141 -14 28 -28 67
-31 88 -4 20 -11 40 -17 44 -6 4 -7 -4 -3 -21 l7 -28 -35 27 c-18 14 -39 40
-46 58 -7 18 -22 55 -35 82 -13 28 -29 68 -35 90 -19 60 -39 95 -55 95 -25 0
-17 -43 20 -100 48 -76 85 -151 85 -174 0 -14 -6 -17 -25 -14 -16 4 -29 0 -34
-9 -6 -11 -12 -2 -21 31 -7 25 -19 51 -28 58 -13 11 -14 10 -4 -9 19 -34 15
-49 -7 -29 -20 18 -102 200 -106 233 -1 10 -4 25 -7 33 -4 8 -9 35 -11 59 -6
45 -52 131 -76 139 -26 9 -5 -58 73 -233 41 -93 73 -171 70 -174 -2 -2 -24 16
-48 42 l-43 46 1 -74 c1 -41 1 -75 0 -75 -6 0 -107 148 -115 167 -5 14 -18 37
-27 52 -30 42 -71 148 -88 222 -14 64 -14 72 0 94 9 13 16 35 16 49 0 63 64
43 161 -50 43 -41 86 -74 95 -74 18 0 -42 61 -121 122 -122 95 -187 227 -188
381 0 72 -10 98 -24 61z m141 -814 c12 -20 14 -35 8 -43 -14 -19 -63 -167 -71
-217 l-7 -45 -12 40 c-7 22 -12 84 -12 137 0 96 9 123 33 99 20 -20 37 -13 28
12 -8 23 -5 47 8 47 4 0 15 -14 25 -30z m205 -152 c6 -7 23 -29 39 -48 66 -81
87 -136 96 -245 l6 -70 -21 45 c-11 25 -23 59 -26 75 -10 46 -56 130 -72 130
-18 0 -46 48 -56 93 -5 25 -3 32 9 32 8 0 20 -6 25 -12z"/>
<path d="M1765 4780 c-3 -10 1 -32 9 -48 8 -16 22 -59 30 -95 9 -37 27 -90 41
-117 14 -28 23 -55 20 -60 -3 -5 11 -20 33 -33 21 -14 65 -56 98 -93 56 -63
71 -92 78 -150 1 -12 9 -29 17 -39 31 -40 121 -125 131 -125 7 0 5 7 -4 18
-30 35 -32 45 -7 37 24 -8 24 -7 -2 17 -15 14 -30 39 -34 56 -3 17 -13 37 -22
44 -9 7 -33 36 -53 63 -21 28 -60 73 -88 100 -27 28 -57 65 -66 83 -20 39 -25
41 -18 7 3 -20 1 -24 -12 -19 -17 6 -23 54 -7 54 5 0 -18 53 -51 118 -33 64
-62 136 -65 160 -6 45 -18 54 -28 22z"/>
<path d="M1962 4768 c38 -54 160 -178 205 -210 40 -27 60 -62 51 -88 -3 -10
-18 -1 -115 73 -27 20 -38 24 -44 15 -6 -9 -14 -6 -33 11 -33 31 -44 21 -18
-16 11 -15 34 -59 51 -97 36 -76 53 -86 20 -12 -28 65 -19 67 18 3 97 -167
143 -251 138 -255 -7 -7 -27 19 -77 101 -22 37 -43 65 -46 63 -2 -3 25 -50 62
-105 36 -55 65 -106 64 -113 -2 -8 9 -14 28 -16 26 -3 41 -15 79 -68 26 -35
50 -62 53 -59 3 3 0 11 -6 17 -7 7 -12 18 -12 26 0 8 -9 25 -20 39 -11 14 -17
29 -14 34 3 5 -2 12 -11 15 -23 9 -90 113 -149 234 -64 128 -67 138 -57 145
15 9 140 -115 172 -172 37 -64 32 -79 -10 -32 -17 18 -32 31 -35 28 -2 -2 34
-44 81 -94 88 -95 143 -168 143 -193 0 -12 -4 -11 -22 4 l-22 19 17 -28 c10
-15 15 -32 12 -37 -3 -5 0 -12 6 -15 5 -4 8 -14 5 -22 -4 -10 -1 -13 13 -8 25
8 46 -45 27 -70 -10 -15 -15 -14 -49 9 -35 24 -37 24 -37 6 0 -17 -7 -20 -39
-20 -22 0 -43 5 -46 10 -3 6 -15 10 -26 10 -14 0 -21 -9 -26 -31 -6 -34 -12
-31 -42 24 -25 45 -25 48 -6 41 8 -4 15 -12 15 -19 0 -18 17 -28 25 -15 3 5
-3 17 -15 27 -11 10 -20 22 -20 28 0 5 -8 19 -16 30 -16 20 -16 20 -9 -2 3
-13 3 -23 -1 -23 -7 0 -120 93 -166 137 -16 15 -28 32 -28 40 0 7 -8 13 -18
13 -10 0 -24 6 -31 13 -11 10 -11 8 0 -10 11 -19 11 -25 -4 -41 -16 -17 -23
-42 -13 -42 3 0 15 4 28 9 32 12 70 -5 135 -60 52 -45 113 -115 113 -130 0 -4
-19 -2 -41 6 -23 8 -53 15 -66 15 -25 0 -25 0 -5 -17 23 -20 143 -177 161
-211 13 -25 9 -27 -22 -11 -16 9 -13 3 11 -23 29 -31 35 -47 52 -148 26 -149
26 -174 -6 -215 -14 -19 -23 -39 -19 -45 4 -6 1 -9 -7 -8 -7 2 -12 -5 -12 -14
1 -10 -2 -16 -6 -13 -9 6 -94 -124 -87 -132 3 -3 20 11 37 31 26 29 36 34 59
30 39 -8 88 37 126 115 16 34 33 61 38 61 11 0 1 -69 -20 -133 -11 -36 -26
-56 -56 -78 -22 -16 -47 -29 -56 -29 -13 0 -14 -2 -2 -9 25 -16 93 23 176 101
27 26 54 48 59 48 16 0 -1 -101 -22 -130 -12 -16 -19 -36 -16 -44 4 -9 -18
-38 -60 -80 -36 -36 -60 -66 -52 -66 7 0 48 31 92 69 l79 69 5 -36 c3 -24 10
-37 20 -37 17 -1 108 -93 170 -172 22 -29 46 -53 54 -53 23 0 107 -197 122
-288 10 -66 19 -89 41 -112 31 -34 45 -37 63 -15 7 8 21 15 32 15 11 0 28 11
39 24 10 13 32 29 49 36 24 10 30 18 30 42 0 26 -2 29 -15 18 -20 -17 -20 5 0
44 8 15 15 33 15 40 0 17 -49 -47 -50 -65 0 -9 -7 -23 -17 -30 -15 -13 -16
-11 -9 16 4 17 9 49 13 73 4 29 10 42 18 38 14 -5 45 24 45 42 0 6 -7 9 -15 6
-11 -5 -13 -2 -9 10 3 9 10 16 15 16 5 0 9 21 8 48 -1 42 -2 44 -11 22 -6 -14
-27 -38 -48 -53 -40 -28 -56 -34 -45 -17 3 6 1 10 -5 10 -6 0 -8 5 -5 10 4 6
11 8 16 5 5 -3 7 0 4 7 -3 7 17 40 45 73 30 37 49 70 49 85 l0 25 -22 -30
c-31 -43 -111 -121 -138 -136 -23 -12 -23 -12 -7 12 10 13 38 58 62 100 25 42
57 91 73 109 27 33 43 77 22 65 -6 -4 -8 -14 -5 -22 4 -9 2 -11 -5 -7 -7 4
-28 -12 -50 -36 -22 -24 -39 -40 -39 -35 0 19 24 85 31 85 4 0 12 15 19 34 6
19 21 38 35 44 27 13 35 35 9 25 -15 -5 -16 0 -12 42 3 26 10 50 15 54 11 7
17 92 6 90 -21 -5 -43 14 -38 32 11 34 -3 20 -34 -33 -23 -41 -31 -49 -36 -35
-4 9 -2 38 4 64 19 83 31 181 25 197 -3 9 -15 16 -25 16 -16 0 -19 8 -19 53 0
28 -9 120 -20 202 -26 202 -26 214 10 131 16 -38 37 -92 46 -120 10 -28 19
-46 21 -40 11 32 -163 439 -199 466 -13 10 -28 22 -35 28 -18 15 -36 12 -29
-5 3 -8 1 -15 -5 -15 -6 0 -6 -7 1 -19 5 -11 10 -34 10 -51 0 -17 9 -43 21
-59 15 -21 25 -63 40 -172 10 -79 21 -151 23 -159 8 -32 4 50 -7 157 -7 61 -9
109 -5 107 17 -11 46 -81 63 -150 13 -54 16 -102 14 -192 -2 -66 -8 -124 -12
-128 -15 -15 -27 20 -28 81 0 33 -5 69 -10 80 -6 13 -7 -8 -3 -60 7 -104 11
-125 28 -125 16 0 23 14 42 85 13 48 13 45 10 -75 -3 -79 -10 -142 -20 -170
-8 -25 -12 -48 -7 -53 8 -8 41 99 41 137 0 35 10 56 26 56 29 0 9 -132 -38
-249 -31 -79 -132 -286 -151 -309 -28 -34 -30 78 -2 123 6 11 20 54 30 95 10
41 24 92 31 112 7 21 9 40 4 43 -14 9 -23 151 -11 186 9 27 9 30 -4 19 -13
-11 -15 -6 -16 36 0 68 -12 130 -24 126 -11 -3 -11 -7 -1 -76 11 -71 -8 -55
-22 20 -7 36 -20 80 -29 97 -11 22 -17 62 -19 127 -2 114 -40 251 -104 380
-23 47 -43 91 -44 98 -3 16 -75 61 -98 62 -10 0 -18 -6 -18 -12 0 -7 -9 -2
-20 12 -23 31 -32 23 -24 -19 4 -19 19 -41 35 -53 16 -12 26 -25 23 -30 -4 -5
3 -18 13 -28 19 -17 53 -128 88 -283 16 -73 13 -92 -14 -83 -9 4 -5 -2 8 -12
35 -28 78 -240 52 -257 -6 -3 -13 11 -17 31 -5 26 -25 56 -69 103 -100 106
-115 125 -105 142 5 8 7 22 4 32 -4 12 0 17 13 17 13 0 9 6 -14 21 -24 15 -33
30 -38 61 -9 53 -94 222 -138 273 -43 51 -119 167 -112 173 2 3 23 -7 45 -22
63 -41 160 -207 216 -366 15 -44 32 -80 37 -80 13 0 2 39 -32 113 -16 34 -32
73 -36 87 -4 14 -23 50 -41 81 -34 57 -41 79 -25 79 12 0 70 -67 83 -96 6 -13
15 -24 20 -24 13 0 10 6 -26 62 -20 31 -61 74 -100 103 -36 27 -66 54 -66 61
0 6 -29 29 -65 52 -35 23 -79 55 -97 72 -18 16 -59 53 -92 82 -32 29 -72 72
-88 96 -16 23 -34 42 -39 42 -6 0 0 -15 13 -32z m834 -1008 c19 0 60 -87 75
-158 18 -89 -2 -329 -35 -404 -13 -31 -14 -25 -10 85 3 66 5 122 6 125 1 4 -2
14 -5 22 -3 8 -13 44 -22 80 -9 36 -23 75 -30 86 -13 20 -45 165 -45 203 0 12
6 9 25 -12 14 -15 33 -27 41 -27z m-320 -220 c4 -19 8 -46 10 -60 2 -14 12
-65 23 -115 29 -132 28 -144 -20 -193 -23 -23 -46 -39 -51 -36 -5 3 -5 11 1
18 17 20 43 136 37 162 -9 33 -31 30 -46 -6 -7 -17 -15 -32 -19 -34 -3 -2 -6
82 -7 187 l-1 191 33 -39 c18 -22 36 -55 40 -75z m295 23 c6 -15 17 -59 25
-97 14 -68 14 -73 -10 -150 -33 -105 -46 -166 -36 -166 4 0 11 19 15 43 4 23
10 35 12 26 2 -9 -3 -49 -13 -90 -9 -41 -18 -98 -21 -126 -3 -29 -9 -53 -14
-53 -5 0 0 -15 11 -32 39 -65 17 -66 -42 -2 -52 56 -54 61 -31 67 15 3 13 6
-10 15 -15 6 -32 23 -39 37 -9 20 -7 32 13 72 52 104 79 112 79 24 0 -83 20
-95 35 -21 7 33 6 34 -8 15 -15 -19 -16 -17 -11 30 6 65 43 245 56 268 11 21
1 38 -11 18 -6 -10 -10 -9 -15 4 -7 20 -8 145 -1 145 3 0 10 -12 16 -27z
m-211 -27 c0 -7 11 -35 25 -62 28 -55 34 -118 21 -229 l-9 -70 -13 56 c-7 31
-22 84 -33 117 -17 50 -20 75 -14 136 3 42 10 73 14 70 5 -3 9 -11 9 -18z
m360 -292 c-22 -107 -99 -294 -120 -294 -4 0 -8 19 -8 41 -1 45 28 129 85 252
42 90 61 90 43 1z m235 -115 c-4 -12 -7 -36 -7 -55 0 -19 -4 -37 -9 -40 -5 -3
-9 -12 -9 -20 0 -9 -13 -29 -30 -46 -28 -28 -41 -56 -20 -43 21 13 -2 -69 -27
-97 -16 -17 -18 -18 -23 -3 -5 14 -8 12 -18 -10 -12 -26 -12 -27 13 -23 30 6
30 5 6 -41 -11 -20 -22 -45 -25 -55 -6 -19 -7 -19 -22 2 -13 19 -13 24 1 45 9
15 13 35 9 53 -6 32 37 165 65 199 15 18 32 46 64 108 27 51 44 64 32 26z"/>
<path d="M2105 3012 c-11 -2 -25 -8 -31 -13 -6 -5 -38 -6 -70 -3 -38 3 -86 -1
-134 -11 -41 -9 -86 -18 -100 -19 -14 0 -38 -6 -55 -12 -16 -7 -49 -17 -72
-23 -22 -6 -51 -19 -63 -29 -20 -16 -25 -30 -37 -113 -8 -61 31 -105 56 -62 7
13 5 23 -6 36 -9 9 -13 20 -9 24 4 5 12 0 17 -10 13 -23 60 -22 107 2 20 10
81 28 136 40 54 12 107 26 117 31 23 13 56 13 61 0 2 -5 41 -10 88 -11 83 -3
126 -15 150 -44 7 -8 28 -17 49 -21 47 -9 58 -18 65 -59 7 -34 26 -50 26 -21
0 37 -72 230 -91 241 -18 12 -23 -4 -7 -22 19 -23 42 -82 35 -89 -3 -3 -14 14
-25 38 -10 24 -26 49 -35 57 -10 7 -17 26 -17 41 0 34 -41 64 -74 56 -18 -4
-22 -11 -18 -34 3 -22 0 -28 -17 -29 -12 -1 -21 2 -21 8 0 5 6 9 13 9 8 0 9 2
1 8 -7 4 -13 14 -15 22 -3 9 -12 14 -24 12z"/>
<path d="M814 2970 c-28 -11 -40 -30 -24 -40 9 -5 9 -9 1 -14 -6 -4 -11 -1
-11 6 -1 9 -5 7 -14 -5 -7 -9 -20 -15 -29 -12 -16 7 -37 -39 -37 -80 0 -29
-39 -117 -49 -111 -4 3 -13 -5 -21 -17 -12 -20 -12 -21 3 -8 15 11 18 10 26
-12 11 -30 39 -43 47 -22 4 8 11 15 18 15 6 0 34 18 63 39 51 39 52 40 75 22
30 -23 100 -31 191 -21 41 5 94 4 121 -1 32 -6 53 -6 59 0 6 6 23 7 39 4 l28
-6 -15 29 c-8 16 -18 44 -21 62 -3 17 -11 32 -16 32 -5 0 -7 -9 -4 -20 3 -11
9 -29 12 -40 3 -11 1 -20 -5 -20 -10 0 -51 79 -51 99 0 6 -7 11 -15 11 -8 0
-18 14 -23 33 -8 30 -11 32 -53 30 -24 -1 -89 9 -144 23 -55 14 -107 27 -115
29 -8 2 -25 0 -36 -5z"/>
<path d="M1797 2742 c-20 -24 -77 -110 -77 -116 0 -12 20 -5 20 7 0 6 16 33
35 59 l34 47 58 -6 c71 -7 87 -18 35 -25 -21 -3 -57 -17 -80 -32 -46 -29 -126
-129 -119 -148 3 -9 7 -6 13 7 15 37 129 142 162 150 43 9 52 1 52 -50 0 -63
18 -66 22 -3 l3 53 44 6 c30 4 53 1 75 -11 32 -16 32 -17 20 -51 -7 -18 -13
-40 -13 -48 -2 -26 25 8 39 50 16 49 28 55 80 41 22 -5 40 -6 40 -2 0 13 -67
30 -195 51 -33 5 -82 14 -110 19 -103 19 -123 19 -138 2z"/>
<path d="M915 2644 c-16 -7 -45 -13 -62 -14 -18 0 -33 -5 -33 -11 0 -7 -10 -9
-27 -4 -22 5 -25 4 -15 -8 14 -17 6 -27 -22 -27 -16 0 -21 -7 -22 -30 -2 -43
30 -40 81 9 22 22 52 43 68 46 26 7 27 6 27 -37 0 -24 5 -49 11 -55 16 -16 2
-33 -26 -33 -13 0 -27 -4 -30 -10 -4 -6 32 -10 99 -10 58 0 106 2 106 5 0 2
-9 9 -21 15 -15 9 -24 8 -36 -1 -13 -11 -20 -8 -49 24 -35 38 -41 64 -24 97 8
16 19 19 53 16 23 -2 57 -4 76 -5 l33 -1 -4 -70 c-4 -53 -2 -70 8 -70 19 0 27
42 22 101 -3 27 -3 49 -1 49 2 0 28 -18 57 -40 72 -54 78 -50 16 10 -46 45
-58 51 -110 58 -32 5 -68 4 -81 0 -14 -5 -32 -5 -44 0 -13 6 -30 4 -50 -4z"/>
<path d="M3165 2313 c-16 -32 -51 -80 -77 -107 -26 -27 -47 -50 -45 -51 1 0
14 -6 30 -13 40 -17 41 -89 1 -161 -13 -24 -21 -48 -18 -53 6 -9 144 124 144
139 0 4 -5 2 -12 -5 -18 -18 -28 -14 -28 12 0 44 -12 86 -26 86 -26 0 -26 39
1 72 34 40 67 105 63 124 -2 8 -16 -12 -33 -43z"/>
<path d="M1100 1972 c-14 -16 -38 -53 -55 -82 -16 -28 -45 -70 -62 -93 -18
-23 -33 -47 -33 -53 0 -16 -115 -90 -168 -108 -44 -16 -61 -3 -18 14 13 5 27
14 31 20 4 7 -24 -4 -62 -24 -38 -20 -83 -36 -99 -36 -25 0 -21 5 36 35 35 20
71 42 80 51 8 9 -20 -3 -62 -26 -72 -38 -158 -59 -158 -37 0 4 -5 5 -11 2 -10
-7 -8 -25 13 -120 9 -39 13 -45 17 -28 6 21 9 20 44 -24 34 -42 36 -48 24 -67
-17 -26 -33 -79 -41 -133 -5 -35 -3 -43 9 -43 9 0 34 -9 57 -20 44 -21 44 -21
103 25 48 37 143 95 156 95 5 0 9 -7 9 -15 0 -8 7 -15 15 -15 15 0 82 -20 230
-67 64 -21 110 -27 230 -33 262 -12 322 -5 419 53 48 27 128 66 169 80 9 4 17
11 17 17 0 5 3 10 8 10 4 0 7 -13 7 -30 0 -35 16 -41 30 -12 7 17 17 20 59 18
27 -2 52 -8 54 -14 5 -15 27 -15 54 -1 16 9 18 13 7 19 -10 7 -10 14 -1 35 21
46 15 104 -15 143 -18 24 -26 46 -25 66 2 16 4 32 6 33 2 2 22 -4 45 -14 31
-13 41 -23 41 -41 0 -13 7 -30 15 -38 13 -14 16 -12 25 12 6 15 14 47 17 71 9
66 16 43 14 -44 -1 -43 1 -74 6 -70 4 5 8 16 8 25 1 9 2 29 3 45 1 17 8 27 18
27 11 0 14 9 12 37 l-3 36 -73 -2 c-75 -2 -182 22 -182 41 0 6 8 7 18 3 57
-22 132 -35 172 -30 83 11 70 20 -29 20 -65 0 -103 4 -113 13 -9 7 -29 12 -44
12 -156 -2 -165 -2 -190 16 -15 11 -34 24 -43 29 -24 14 -101 96 -101 106 0 5
-5 9 -11 9 -6 0 -8 -9 -4 -21 5 -16 4 -19 -5 -14 -14 9 -8 -18 17 -78 18 -41
12 -57 -13 -36 -24 20 -180 23 -188 3 -3 -8 -15 -14 -26 -14 -11 0 -20 -7 -20
-15 0 -8 6 -15 13 -15 8 0 24 -21 37 -47 27 -54 39 -44 16 12 -20 47 -20 65
-2 65 16 0 25 -22 32 -77 3 -20 13 -57 24 -81 26 -58 25 -61 -9 -53 -31 6 -81
44 -81 61 0 16 9 12 36 -17 l24 -28 -23 46 c-13 25 -26 56 -30 68 -3 11 -12
21 -21 21 -9 0 -16 6 -16 14 0 26 -18 27 -59 6 -23 -11 -58 -20 -83 -19 -24 0
-36 3 -28 6 19 7 50 34 50 43 0 4 -17 -1 -39 -12 -31 -15 -43 -17 -67 -8 -39
15 -74 49 -74 72 0 10 -4 18 -10 18 -5 0 -25 14 -43 30 -42 37 -70 41 -37 5
l23 -25 -24 1 c-33 1 -83 32 -87 53 -2 10 5 28 15 39 25 28 57 101 51 117 -2
8 -14 1 -28 -18z m23 -206 c68 -20 166 -86 128 -86 -4 0 -20 9 -34 20 -14 11
-28 16 -31 11 -4 -5 -21 -5 -43 -1 -43 10 -64 1 -104 -45 -16 -18 -41 -35 -57
-38 -15 -3 -44 -21 -64 -41 -48 -47 -97 -76 -128 -76 -17 0 -40 -14 -65 -40
-43 -44 -61 -41 -50 9 8 37 4 34 103 70 46 16 95 42 118 62 53 47 153 152 154
162 0 11 21 9 73 -7z m591 -77 c20 -22 41 -51 46 -65 5 -13 14 -24 20 -24 6 0
3 17 -6 40 -24 59 -12 59 30 0 20 -27 41 -50 48 -50 7 0 6 6 -4 18 -9 9 -20
27 -27 38 -10 21 -9 21 13 11 14 -7 32 -28 42 -47 10 -21 19 -30 21 -22 4 10
13 6 33 -13 23 -22 35 -26 62 -22 37 5 68 -7 68 -26 0 -7 9 -23 21 -35 11 -13
19 -30 17 -40 -2 -13 -9 -8 -25 19 -26 41 -63 77 -63 61 0 -7 4 -12 8 -12 10
0 42 -54 42 -70 0 -21 -29 9 -51 52 -20 38 -39 50 -39 24 0 -8 5 -18 10 -21 6
-3 10 -17 10 -31 0 -14 5 -30 10 -37 34 -40 58 -87 46 -87 -16 0 -52 42 -78
89 -18 33 -46 44 -33 14 4 -10 10 -26 12 -36 8 -27 -22 -11 -52 29 -29 38 -53
47 -35 13 7 -11 9 -24 5 -27 -11 -12 -45 39 -58 85 -6 24 -15 43 -19 43 -11 0
-10 -12 7 -59 8 -22 10 -41 6 -41 -14 0 -81 79 -81 95 0 8 -4 15 -10 15 -25 0
8 -52 62 -99 21 -18 35 -37 32 -42 -7 -12 -64 22 -64 38 0 7 -7 13 -16 13 -17
0 -58 84 -69 140 l-6 35 20 -25 c18 -21 22 -23 31 -10 12 19 8 32 -11 39 -12
4 -12 2 0 -15 14 -17 13 -18 -1 -4 -18 17 -34 90 -20 90 5 0 26 -18 46 -41z
m-558 -294 c-9 -25 -16 -56 -16 -70 0 -23 -23 -55 -39 -55 -5 0 -20 9 -34 20
-27 21 -42 67 -33 98 9 28 125 81 134 60 2 -3 -4 -27 -12 -53z m184 32 c23
-11 24 -17 26 -97 0 -47 -4 -91 -9 -97 -11 -15 -65 -16 -122 -3 -72 17 -94 82
-55 168 l19 42 58 0 c32 0 69 -6 83 -13z m224 0 c35 -7 47 -84 24 -158 l-11
-39 -82 0 c-75 0 -83 2 -92 23 -21 42 -23 59 -17 107 10 75 52 90 178 67z
m135 -23 c65 -3 74 -4 121 -4 48 -1 72 -27 64 -68 -5 -23 -16 -38 -36 -48 -46
-24 -62 -12 -55 41 8 54 -10 71 -18 18 -17 -106 -18 -107 -81 -121 -25 -6 -48
-5 -63 2 -20 8 -22 15 -17 45 3 20 6 62 6 94 0 40 3 56 11 51 6 -3 37 -8 68
-10z"/>
<path d="M3021 1681 c-23 -75 -25 -91 -13 -91 4 0 17 -3 30 -6 13 -4 22 -3 21
2 -5 29 3 39 34 40 17 0 40 4 50 8 18 8 18 2 12 -135 -9 -213 -33 -324 -96
-434 -62 -110 -91 -159 -134 -223 -26 -40 -46 -75 -42 -78 3 -3 11 5 18 18 7
12 43 70 81 128 93 140 163 287 181 380 9 41 16 124 17 184 1 61 6 118 11 127
5 10 9 45 9 78 l0 59 -30 -29 c-24 -25 -37 -30 -67 -27 -35 3 -38 6 -41 36 -5
50 -18 38 -41 -37z"/>
<path d="M2917 1280 c-4 -8 -24 -64 -47 -124 -35 -94 -49 -119 -110 -190 -93
-109 -331 -341 -405 -397 -86 -65 -161 -112 -230 -147 -131 -65 -179 -92 -164
-92 30 0 274 133 374 203 91 65 223 189 433 409 71 74 74 80 118 204 24 70 43
133 40 138 -2 6 -6 4 -9 -4z"/>
<path d="M920 1175 c0 -23 219 -116 305 -129 84 -14 96 -18 91 -31 -5 -14 23
-25 66 -25 20 0 26 4 22 15 -5 12 2 15 34 15 22 0 55 -3 73 -7 32 -7 30 -8
-24 -13 -73 -6 -71 -26 2 -21 69 4 102 16 95 34 -3 10 12 18 53 29 32 9 87 23
123 33 67 18 99 35 65 35 -11 0 -49 -10 -85 -21 -140 -45 -218 -55 -356 -46
-107 6 -147 13 -234 42 -58 20 -129 49 -159 65 -52 29 -71 36 -71 25z"/>
<path d="M1519 966 c-2 -2 -33 -7 -69 -11 -36 -4 -78 -13 -94 -21 -16 -8 -36
-14 -45 -15 -13 0 -12 -2 2 -8 16 -6 14 -11 -20 -34 -22 -15 -44 -27 -51 -27
-7 0 -12 -4 -12 -10 0 -13 7 -13 33 4 40 25 176 37 257 23 30 -5 40 -4 30 2
-8 6 -32 13 -52 16 -50 9 -48 20 2 22 48 2 66 11 52 25 -6 6 -8 17 -5 24 5 13
-17 20 -28 10z"/>
</g>
</svg>
