<?xml version="1.0" encoding="UTF-8" standalone="no"?>
<!-- Created with Inkscape (http://www.inkscape.org/) -->

<svg
   xmlns:dc="http://purl.org/dc/elements/1.1/"
   xmlns:cc="http://creativecommons.org/ns#"
   xmlns:rdf="http://www.w3.org/1999/02/22-rdf-syntax-ns#"
   xmlns:svg="http://www.w3.org/2000/svg"
   xmlns="http://www.w3.org/2000/svg"
   xmlns:sodipodi="http://sodipodi.sourceforge.net/DTD/sodipodi-0.dtd"
   xmlns:inkscape="http://www.inkscape.org/namespaces/inkscape"
   width="65.214882"
   height="96.64463"
   id="svg2"
   version="1.1"
   inkscape:version="0.48.2 r9819"
   sodipodi:docname="kc-logo-papyrus.svg">
  <defs
     id="defs4" />
  <sodipodi:namedview
     id="base"
     pagecolor="#ffffff"
     bordercolor="#666666"
     borderopacity="1.0"
     inkscape:pageopacity="0.0"
     inkscape:pageshadow="2"
     inkscape:zoom="1.6824962"
     inkscape:cx="120.47128"
     inkscape:cy="-2.1035593"
     inkscape:document-units="px"
     inkscape:current-layer="layer1"
     showgrid="true"
     inkscape:window-width="1134"
     inkscape:window-height="809"
     inkscape:window-x="95"
     inkscape:window-y="33"
     inkscape:window-maximized="0"
     inkscape:snap-global="false"
     fit-margin-top="0"
     fit-margin-left="0"
     fit-margin-right="0"
     fit-margin-bottom="0"
     showborder="true">
    <inkscape:grid
       type="xygrid"
       id="grid3032"
       empspacing="1"
       visible="true"
       enabled="true"
       snapvisiblegridlinesonly="true" />
  </sodipodi:namedview>
  <metadata
     id="metadata7">
    <rdf:RDF>
      <cc:Work
         rdf:about="">
        <dc:format>image/svg+xml</dc:format>
        <dc:type
           rdf:resource="http://purl.org/dc/dcmitype/StillImage" />
        <dc:title></dc:title>
      </cc:Work>
    </rdf:RDF>
  </metadata>
  <g
     inkscape:label="Layer 1"
     inkscape:groupmode="layer"
     id="layer1"
     transform="translate(-287.01709,-175.48592)">
    <g
       id="g3098">
      <g
         transform="matrix(0,1,-1,0,540.89005,-98.240444)"
         id="text2989"
         style="font-size:72px;font-style:normal;font-variant:normal;font-weight:bold;font-stretch:normal;text-align:center;line-height:125%;letter-spacing:0px;word-spacing:0px;writing-mode:lr-tb;text-anchor:middle;fill:#793527;fill-opacity:1;stroke:none;font-family:Papyrus;-inkscape-font-specification:Papyrus Bold">
        <path
           inkscape:connector-curvature="0"
           id="path3030"
           d="m 332.48087,249.12686 -0.38672,1.51172 c -0.23441,0.51562 -0.46878,0.80859 -0.70313,0.87891 -0.44534,0.0937 -0.69143,0.16405 -0.73828,0.21093 l -0.70312,0.5625 c -0.53909,0.32812 -0.8555,0.55078 -0.94922,0.66797 l -0.28125,0.35157 -1.30078,-0.14063 -1.51172,0.70313 -0.0703,0 -0.0703,-0.70313 c -2e-5,-0.0938 -0.0469,-0.14063 -0.14062,-0.14062 l -0.14063,0.0703 -1.79297,0.49219 -2.03906,-0.42188 -6.1875,0.21094 -2.63672,-0.94922 0.28125,-0.77344 0.91406,-1.93359 0.14063,-1.89844 0.38672,-1.72266 0,-2.67187 0.21094,-0.98438 -0.14063,-16.91015 0.14063,-2.10938 -0.14063,-0.77343 -0.21094,-0.8086 1.44141,-0.14062 c -0.42189,-0.86717 -0.96095,-1.53514 -1.61719,-2.00391 l -0.14062,-0.59766 0.14062,-2.5664 -0.28125,-4.46485 0.21094,-1.75781 0.24609,-0.70312 -0.73828,-8.36719 -0.35156,-0.77344 -0.14063,-2.25 -0.35156,-0.77344 c -0.0703,-0.0468 -0.10548,-0.16401 -0.10547,-0.35156 l 0.10547,-0.80859 0.28125,-0.42188 1.86328,0.42188 -0.5625,-0.42188 c -0.3047,-0.21089 -0.45704,-0.48042 -0.45703,-0.80859 -1e-5,-0.23433 0.0234,-0.42183 0.0703,-0.5625 -0.28126,-0.0937 -0.44532,-0.14058 -0.49218,-0.14063 -0.0938,5e-5 -0.32814,0.0469 -0.70313,0.14063 -0.14063,-1.85151 -0.36329,-2.83589 -0.66797,-2.95313 l -1.4414,-0.59765 0.35156,-0.63281 1.23047,-0.63282 0.66797,-0.3164 c 0.91405,-0.42182 1.72264,-0.63276 2.42578,-0.63282 0.14061,6e-5 0.26952,0.0235 0.38672,0.0703 l 5.16797,0.80859 2.39062,0.14063 c 0.42185,0.0938 0.86717,0.23442 1.33594,0.42187 l 1.51172,-0.42187 2.53125,-0.45704 1.86328,-0.63281 0.66797,0.14063 c -0.0704,0.60943 -0.21097,1.0313 -0.42188,1.26562 -0.18753,0.21099 -0.57425,0.43365 -1.16015,0.66797 -3e-5,0.56255 -0.11722,0.92583 -0.35157,1.08984 l -1.51172,0.8086 -0.66796,0.28125 -1.01954,-0.52735 -1.72265,0.52735 -4.95703,-0.35156 -0.73828,1.125 0.38671,0.21093 0,0.59766 0.14063,1.58203 -0.28125,10.93359 0.14062,1.01954 c 0.0234,0.0938 0.0351,0.18753 0.0352,0.28125 0.0234,0.0938 0.0351,0.25784 0.0352,0.49218 l 0.0703,2.17969 -0.21094,1.79297 0,0.14062 0.14063,1.86329 -0.59766,1.89843 0.31641,0.49219 0.49218,0.70313 -0.5625,1.51171 c 0.42186,0.58597 0.6328,1.06643 0.63282,1.44141 l -0.14063,1.16016 0.28125,3.23437 0,0.0703 c -2e-5,0.35159 -0.23439,0.83205 -0.70312,1.44141 0.60935,0.8672 0.91404,1.50002 0.91406,1.89844 -2e-5,0.14064 -0.0469,0.3047 -0.14063,0.49219 l -1.01953,2.21484 1.01953,1.58203 c 0.37499,0.63282 0.56249,1.06642 0.5625,1.30078 l -0.49218,11.53125 0.42187,3.02344 c 0.28123,-0.0469 0.45701,-0.0703 0.52735,-0.0703 l 5.30859,1.58203 1.58203,-0.21094 0.87891,0.21094 0.70312,0.14062 c 0.60935,-1.05469 1.28904,-1.58203 2.03906,-1.58203 l 1.30079,0.28125" />
      </g>
      <g
         transform="translate(-5.3580734,-94.698977)"
         id="text2993"
         style="font-size:72px;font-style:normal;font-variant:normal;font-weight:bold;font-stretch:normal;text-align:center;line-height:125%;letter-spacing:0px;word-spacing:0px;writing-mode:lr-tb;text-anchor:middle;fill:#793527;fill-opacity:1;stroke:none;font-family:Papyrus;-inkscape-font-specification:Papyrus Bold">
        <path
           inkscape:connector-curvature="0"
           id="path3027"
           d="m 352.18005,362.64594 c -0.51567,0.44531 -0.86723,0.83203 -1.05468,1.16015 -0.16411,0.30469 -0.31646,0.78516 -0.45704,1.44141 -0.67973,0.21094 -1.25395,0.46875 -1.72265,0.77344 -0.23442,0.49218 -0.42192,0.76171 -0.5625,0.80859 l -0.94922,-0.28125 -0.70313,-0.0703 -1.82812,-1.30078 -1.30078,-0.87891 -1.26563,-0.77344 0,-0.28125 -0.3164,0 -0.49219,-0.59765 -0.77344,-1.23047 -0.52734,-0.49219 c 0.3984,-0.5625 0.59762,-0.99609 0.59765,-1.30078 -3e-5,-0.14062 -0.0469,-0.30468 -0.14062,-0.49219 l -0.31641,0 c -0.23441,1e-5 -0.83206,0.16407 -1.79297,0.49219 l -0.84375,-0.77344 c -3e-5,-0.58593 -0.0938,-0.99609 -0.28125,-1.23047 -0.16409,-0.2578 -0.50393,-0.43358 -1.01953,-0.52734 l -1.96875,-2.70703 0.45703,-0.14063 c -0.2344,-0.49217 -0.62112,-0.73827 -1.16015,-0.73828 l -1.51172,-1.65234 -0.42188,-0.73828 -1.89843,-2.21485 -0.14063,-1.08984 -0.5625,-0.5625 -0.35156,0.70312 -0.52734,-0.77343 -1.51172,-1.65235 c -0.0703,-0.0703 -0.18753,-0.31638 -0.35157,-0.73828 l 0.49219,-0.28125 c -2e-5,-0.56248 -0.16408,-0.9492 -0.49219,-1.16016 -0.37502,0.18753 -0.60939,0.28128 -0.70312,0.28125 -0.0703,3e-5 -0.24612,-0.0469 -0.52734,-0.14062 l -0.49219,0.59766 -1.01953,1.37109 -1.79297,2.35547 -1.72266,2.88281 -0.66797,0.42188 -0.5625,0.73828 c -0.0469,0.75001 -0.38673,1.54688 -1.01953,2.39062 -0.60939,0.84376 -1.39454,1.62892 -2.35547,2.35547 -0.21095,0.84376 -0.42188,1.48829 -0.63281,1.93359 -0.21095,0.44532 -0.59767,1.0547 -1.16016,1.82813 l -0.52734,0.63281 c -0.39845,-0.23437 -0.65626,-0.35156 -0.77344,-0.35156 -0.28125,0 -0.59766,0.21094 -0.94922,0.63281 l 0.59766,0.87891 -1.89844,2.21484 -3.30468,1.79297 c -0.37501,-0.1875 -0.73829,-0.28125 -1.08985,-0.28125 -0.0469,0 -0.30469,0.0469 -0.77344,0.14063 l -0.73828,-0.77344 0,-0.35156 4.85157,-4.25391 c 0.89061,-0.77343 1.4414,-1.37109 1.65234,-1.79297 l 0.42187,-0.94922 2.8125,-2.95312 0.28125,-0.87891 3.58594,-5.37891 1.30078,-1.79296 c 0.42186,-0.28124 0.66796,-0.46874 0.73828,-0.5625 0.0937,-0.0937 0.14061,-0.26952 0.14063,-0.52735 l 0,-0.21094 0.49219,-0.66796 c 1.10154,-1.40623 1.65232,-2.43748 1.65234,-3.09375 -2e-5,-0.0937 -0.0234,-0.23436 -0.0703,-0.42188 0.35154,-0.44529 0.52732,-0.73826 0.52734,-0.87891 -2e-5,-0.16403 -0.19923,-0.44528 -0.59765,-0.84375 l -1.65235,-1.4414 -1.08984,-1.08985 c -0.58595,-0.7734 -0.97267,-1.24215 -1.16016,-1.40625 -0.18751,-0.16403 -0.51564,-0.36325 -0.98437,-0.59765 l -0.14063,-1.01953 -0.66797,-0.42188 -0.77343,-0.8789 -1.16016,-0.70313 -1.23047,-2.39062 -2.74219,-2.28516 -2.42578,-3.02344 -1.01953,-0.80859 -0.49219,-0.42188 0.28125,-1.01953 1.01953,-1.01953 0.42188,-0.84375 2.21484,-1.23047 0.8086,-0.49219 c 0.91405,0.4688 1.60546,1.18364 2.07422,2.14454 l 0.0703,0.28125 -0.42188,0.14062 0.28125,0.87891 c 0.23437,0.14066 0.52734,0.21098 0.87891,0.21093 1.03124,0.72661 1.7578,1.38286 2.17969,1.96875 0.42186,0.58598 0.70311,1.27739 0.84375,2.07422 l -0.5625,0 0.49218,1.16016 0.94922,0 0.49219,0.77344 1.30078,2.03906 0.98438,0.91406 0.94922,1.79297 c -0.58596,0.63284 -0.87893,1.08988 -0.87891,1.37109 l 0.24609,0.59766 0.5625,0 c 0.28124,3e-5 0.66795,0.16409 1.16016,0.49219 l 0.28125,-0.5625 0.63281,0.63281 c 0.28123,0.28128 0.52733,0.55081 0.73828,0.80859 0.21092,0.23441 0.32811,0.39847 0.35157,0.49219 0.0469,0.0938 0.0937,0.32815 0.14062,0.70313 1.14842,-0.58591 1.94529,-1.39451 2.39063,-2.42578 l 0.91406,-2.25 2.10937,-2.88282 1.16016,-2.0039 0.77344,-1.3711 0.63281,-1.08984 0.52734,-0.21094 c 0.30466,-1.05464 0.92575,-2.20308 1.86328,-3.44531 0.25779,-0.32808 0.6445,-0.51558 1.16016,-0.5625 l 0.91406,-0.66797 c -0.18753,-0.37495 -0.28128,-0.6562 -0.28125,-0.84375 -3e-5,-0.35152 0.15231,-0.5273 0.45703,-0.52734 l 0.91407,-0.14063 3.02343,-1.16015 c 0.56247,4e-5 0.87887,0.31645 0.94922,0.94921 l -0.73828,0.63282 -1.79297,2.39062 -1.08984,0.77344 -0.91406,1.44141 -0.66797,0.24609 -0.91406,0.42187 c 0.28121,0.49223 0.42184,0.83207 0.42187,1.01954 -3e-5,0.39847 -0.57425,0.87894 -1.72266,1.4414 -0.25784,1.12504 -0.45706,1.76957 -0.59765,1.9336 l -0.91406,1.23046 -1.44141,1.9336 -0.87891,0.84375 -0.42187,0.66797 -1.08985,0.0703 0.52735,1.37109 -1.58203,1.3711 -0.14063,0.63281 c -0.25783,1.07815 -0.50393,1.89846 -0.73828,2.46094 l 0.87891,0.91406 1.65234,1.08984 1.44141,1.96875 1.125,0.91407 0.38672,1.4414 0.63281,0.87891 0.80859,0.35156 0.84375,1.01953 1.01953,0.98438 0.35157,1.23047 1.16015,0.35156 -0.42187,0.45703 0.42187,0.91406 1.08985,0.0703 0.42187,0.8086 c 0.35153,0.89063 0.71481,1.44141 1.08984,1.65234 l 2.42579,1.51172 0.8789,0.49219 c -4e-5,0.14063 -0.0118,0.2461 -0.0352,0.3164 -4e-5,0.0703 -0.0118,0.14064 -0.0352,0.21094 -4e-5,0.46876 0.18746,0.9961 0.5625,1.58203 0.35152,-0.0703 0.5859,-0.16405 0.70312,-0.28125 0.11715,-0.14062 0.17574,-0.43358 0.17579,-0.8789 l 3.375,2.60156 0.8789,0.14062 c 0.72652,0.1172 1.21871,0.22266 1.47656,0.31641 0.28121,0.0703 0.46871,0.21094 0.5625,0.42188 0.0937,0.1875 0.22261,0.65625 0.38672,1.40625" />
      </g>
      <g
         transform="matrix(0.675,0,0,0.675,103.85452,70.621184)"
         id="g3034">
        <g
           style="font-size:72px;font-style:normal;font-variant:normal;font-weight:bold;font-stretch:normal;text-align:center;line-height:125%;letter-spacing:0px;word-spacing:0px;writing-mode:lr-tb;text-anchor:middle;fill:#793527;fill-opacity:1;stroke:none;font-family:Papyrus;-inkscape-font-specification:Papyrus Bold"
           id="text2985"
           transform="translate(2.8380572,66.158097)">
          <path
             d="m 345.5426,121.97176 c -6e-5,0.16408 -0.0235,0.29299 -0.0703,0.38671 l -0.63281,2.07422 0.0703,1.79297 -0.52734,0.94922 c -0.0938,-0.0469 -0.25788,-0.0703 -0.49219,-0.0703 -0.14069,2e-5 -0.26959,0.1172 -0.38672,0.35156 -0.11725,0.23439 -0.17584,0.50392 -0.17578,0.80859 -6e-5,0.0938 0.0234,0.16408 0.0703,0.21094 0.46869,0.77346 0.70306,1.27736 0.70313,1.51172 -7e-5,0.18752 -0.0469,0.35158 -0.14063,0.49219 -0.49225,0.46876 -0.83209,0.99611 -1.01953,1.58203 l -0.77344,0.35156 0.21094,0.2461 -0.21094,0.21093 0.5625,0.42188 -0.0703,0.21094 -0.63281,0.59765 -0.8086,1.33594 -0.5625,0.59766 c -0.32818,-0.32812 -0.59771,-0.49218 -0.80859,-0.49219 -0.42193,1e-5 -0.63287,0.23438 -0.63281,0.70312 -6e-5,0.18751 0.18744,0.52736 0.5625,1.01953 -0.72662,1.21876 -1.92193,2.34376 -3.58594,3.375 -1.73443,1.10157 -3.52739,2.09766 -5.37891,2.98829 -1.85161,0.89062 -3.28129,1.42968 -4.28906,1.61718 l -0.70312,0.14063 c -1.75786,0.32812 -2.85942,0.49219 -3.30469,0.49219 l -0.14063,0 -1.37109,-0.0703 -0.87891,0.14063 -1.30078,-0.77344 -0.98437,0.42188 c -0.44535,0.30468 -0.76176,0.45703 -0.94922,0.45703 l -0.28125,0 c -0.18754,-0.44532 -0.37504,-0.76172 -0.5625,-0.94922 -0.18753,-0.21094 -0.4805,-0.39844 -0.87891,-0.5625 -1.45315,0.75 -2.57815,1.125 -3.375,1.125 -0.28128,0 -0.55081,-0.0937 -0.80859,-0.28125 -0.51565,0 -0.7969,-0.0234 -0.84375,-0.0703 l -2.46094,-0.70313 -2.07422,0.0703 -0.80859,-0.66797 -1.16016,0.14063 -0.98437,-0.14063 -1.44141,-0.42187 -4.46484,-1.01953 -1.23047,-0.98438 -1.58203,-0.59765 -1.65235,-1.72266 c -0.37501,-0.28124 -0.92579,-0.42187 -1.65234,-0.42187 l -0.94922,-1.08985 c 0.18749,-0.4453 0.28124,-0.78515 0.28125,-1.01953 -1e-5,-0.72655 -0.86719,-1.23046 -2.60156,-1.51172 l 0,-0.28125 -0.42188,-0.14062 -0.42187,-0.77344 -0.35156,-0.38672 0,-0.77344 -0.73828,-2.10937 -0.14063,-0.70313 -0.5625,-3.09375 0.21094,-3.02343 0.28125,-0.87891 0.21094,-1.93359 1.72265,-4.53516 0.21094,-0.80859 c 0.49218,-1.21872 1.26562,-2.12107 2.32031,-2.70704 l 0,-0.45703 1.79297,-2.0039 c 0.28124,0.0938 0.4453,0.14066 0.49219,0.14062 0.35155,4e-5 0.59764,-0.14059 0.73828,-0.42187 l 0.49219,-1.51172 0.66797,-0.87891 c 0.2578,-0.51558 0.60936,-0.9023 1.05468,-1.16015 l 1.08985,-0.49219 0.94922,-1.16016 2.21484,-1.51172 c 1.47654,-0.96089 2.32029,-1.44136 2.53125,-1.4414 l 0.5625,0.21093 0.94922,-1.125 0.63281,-0.14062 6.64453,-2.601563 c 0.37497,-0.187453 0.832,-0.281203 1.3711,-0.28125 0.49215,4.7e-5 1.08981,0.140672 1.79296,0.421875 l 0.5625,-0.210937 0.21094,-0.667969 1.01953,0.140625 0.5625,0.105469 0.17578,0 1.72266,-0.457032 2.74219,0.140625 1.33594,-0.28125 1.16015,0.140625 1.08985,-0.07031 1.23046,0.421875 2.07422,0.386719 1.51172,0.84375 4.32422,1.582028 0.42188,0.38672 0.80859,0.49219 0,0.35156 -0.14063,0.0703 c -0.18755,0.18755 -0.2813,0.36333 -0.28125,0.52735 -5e-5,0.1641 0.25776,0.39848 0.77344,0.70312 l 0.14063,-0.28125 c 0.53901,4e-5 0.94916,0.25786 1.23047,0.77344 -6e-5,0.5391 0.0468,0.90238 0.14062,1.08984 0.0937,0.1641 0.31635,0.4102 0.66797,0.73828 0.35151,-0.21089 0.67963,-0.31636 0.98437,-0.3164 0.60932,4e-5 1.11323,0.24613 1.51172,0.73828 l 0.59766,0.77344 1.26562,1.16015 0.17579,0.8086 0.84375,1.05468 0.21093,0.94922 c -0.37506,0.49222 -0.56256,0.90238 -0.5625,1.23047 -6e-5,0.14066 0.0234,0.25785 0.0703,0.35156 l 2.14453,2.17969 0.14062,0.77344 0.59766,1.65234 c -7e-5,0.0703 -0.0469,0.36331 -0.14063,0.87891 l -0.52734,0.28125 0,0.35156 0.59766,0.0703 0.14062,0.8086 0.35156,2.63672 m -5.625,-5.94141 c -6e-5,-1.05466 -0.66802,-1.68747 -2.0039,-1.89844 l -0.21094,-1.93359 -1.72266,-2.67188 -0.28125,-1.08984 -0.45703,-0.0703 -0.63281,-0.77344 -1.58203,-1.86328 -1.44141,-0.94922 -1.4414,-1.16016 -0.66797,-0.21093 -0.42188,-0.77344 -0.70312,0 c -0.6563,4e-5 -1.1602,-0.12887 -1.51172,-0.38672 l -3.09375,-1.72266 -3.09375,-0.42187 -2.25,-0.421875 -2.14453,0.07031 -1.65235,0 -1.75781,0.492185 -1.58203,0.21094 -1.58203,0.94922 -0.84375,-0.21094 -0.0703,0 -0.87891,0.28125 -3.90234,2.14453 -0.91407,0.14063 c -0.65627,0.93754 -1.23049,1.48832 -1.72265,1.65234 l -0.94922,0.38672 -3.09375,3.02344 -0.5625,0.42187 c -0.84377,0.63285 -1.71095,1.78129 -2.60156,3.44532 l -0.35157,0.66796 -0.73828,0.14063 -0.35156,0.70312 -0.42188,1.82813 -0.45703,0.49219 -0.21093,0.70312 -1.44141,-0.21094 c -0.1172,0.39847 -0.2461,0.668 -0.38672,0.8086 -0.11719,0.11721 -0.33985,0.25784 -0.66797,0.42187 l -0.10547,0.35157 c 0.86718,0.53908 1.30078,1.06643 1.30078,1.58203 l -0.0703,2.46093 0.52735,3.58594 -0.0703,0.87891 1.125,1.86328 c -0.56251,0.35158 -0.84376,0.69142 -0.84375,1.01953 -10e-6,0.21095 0.10546,0.42189 0.31641,0.63281 0.23436,0.18752 0.51561,0.28127 0.84375,0.28125 0.11718,-0.0234 0.21093,-0.0351 0.28125,-0.0352 0.0937,-0.0234 0.23436,-0.0351 0.42187,-0.0352 l 1.30079,1.58203 c -0.28127,0.42189 -0.42189,0.69142 -0.42188,0.8086 l 0.28125,0.5625 0.28125,0 1.44141,1.37109 1.86328,1.01953 2.60156,2.14453 2.00391,0.38672 1.08984,1.125 3.65625,1.37109 3.02344,1.30079 1.01953,-0.0703 6.46875,0.94922 1.01953,0.0703 0.80859,-0.0703 1.3711,-0.35156 3.51562,0.21094 1.51172,-0.31641 2.67188,-1.05469 0.98437,-0.28125 0.52735,0.42188 c 0.72651,-0.21094 1.12495,-0.43359 1.19531,-0.66797 l 0.3164,-1.125 3.51563,-3.02344 1.44141,-2.53125 0.5625,-1.01953 0.45703,0 0.42187,-0.91406 -0.21094,-0.38672 0.21094,-0.63281 0.14063,-2.88282 0.5625,-1.37109 0.17578,-1.01953 0.49219,-0.35156 0.35156,-2.14453 c -0.46881,-0.84373 -0.70318,-1.49998 -0.70313,-1.96875 l 0,-0.0703 0.14063,-3.375 -0.0703,-1.08984 c 0.70306,-0.44528 1.05462,-0.91403 1.05468,-1.40625"
             id="path3005"
             inkscape:connector-curvature="0" />
        </g>
        <g
           style="font-size:72px;font-style:normal;font-variant:normal;font-weight:bold;font-stretch:normal;text-align:center;line-height:125%;letter-spacing:0px;word-spacing:0px;writing-mode:lr-tb;text-anchor:middle;fill:#793527;fill-opacity:1;stroke:none;font-family:Papyrus;-inkscape-font-specification:Papyrus Bold"
           id="text2997"
           transform="translate(2.89332,92.110526)">
          <path
             d="m 331.39102,63.912613 -0.49219,0.773437 -0.28125,0.808594 -1.30078,1.195313 -0.5625,0.667968 -1.08984,0.492188 -2.14453,1.652344 c -0.46878,0.257825 -0.87893,0.386731 -1.23047,0.386718 -0.49221,1.3e-5 -0.83205,-0.05858 -1.01953,-0.175781 l -1.08985,-0.351562 -0.42187,-0.07031 -1.58203,0.210938 -0.63281,0.07031 -0.94922,-0.210937 c -1.45314,-0.281237 -2.32033,-0.421862 -2.60157,-0.421875 l -0.14062,0 -2.67188,0.140625 -0.0703,0 -2.21484,-0.5625 -0.59766,-0.246094 c -0.42188,1.4e-5 -0.70313,0.02345 -0.84375,0.07031 l -1.23047,0.316407 -0.49218,-0.210938 -0.66797,0.632813 c -0.4922,-0.140612 -0.90235,-0.210924 -1.23047,-0.210938 -0.39844,1.4e-5 -0.90235,0.363295 -1.51172,1.089844 -0.79688,-0.0703 -1.19532,-0.339831 -1.19531,-0.808594 -10e-6,-0.585923 0.42187,-1.207016 1.26562,-1.863281 l 2.60156,-1.96875 1.79297,-1.054688 2.10938,-0.140625 1.37109,-0.210937 1.05469,0.421875 0.52734,0.07031 0.42188,0 c 0.0234,0.375018 0.12889,0.714862 0.3164,1.019532 0.21093,0.281267 0.46874,0.421891 0.77344,0.421875 0.37499,1.6e-5 0.70311,-0.363264 0.98438,-1.089844 0.53904,1.8e-5 0.97264,-0.140607 1.30078,-0.421875 l 1.01953,0.421875 3.97266,0.140625 3.02343,0.527344 3.02344,-0.738282 0.77344,0.140625 1.37109,-1.582031 0.5625,0.667969"
             id="path3002"
             inkscape:connector-curvature="0" />
        </g>
      </g>
    </g>
  </g>
</svg>
